<svg xmlns="http://www.w3.org/2000/svg" viewBox="0 0 120 120" fill="none">
  <defs><linearGradient id="g5" x1="0" y1="0" x2="1" y2="1"><stop offset="0%" stop-color="#ffc94a"/><stop offset="100%" stop-color="#f59222"/></linearGradient></defs>
  <rect x="20" y="20" width="80" height="80" rx="14" fill="url(#g5)" opacity="0.15"/>
  <circle cx="60" cy="34" r="8" fill="#f59222"/>
  <path d="M44 56 Q44 48 60 48 Q76 48 76 56 L74 76 Q74 82 70 82 L66 82 L66 92 L54 92 L54 82 L50 82 Q46 82 46 76 Z" fill="#f59222"/>
  <rect x="36" y="86" width="48" height="3" rx="1.5" fill="#d97208"/>
  <rect x="36" y="92" width="48" height="3" rx="1.5" fill="#d97208" opacity="0.7"/>
  <rect x="42" y="98" width="36" height="2" rx="1" fill="#d97208" opacity="0.5"/>
  <path d="M88 60 L96 60 M88 68 L96 68 M88 76 L96 76" stroke="#f59222" stroke-width="2" stroke-linecap="round"/>
  <path d="M24 60 L32 60 M24 68 L32 68 M24 76 L32 76" stroke="#f59222" stroke-width="2" stroke-linecap="round"/>
</svg>
