<svg xmlns="http://www.w3.org/2000/svg" viewBox="0 0 120 120" fill="none">
  <defs><linearGradient id="g1" x1="0" y1="0" x2="1" y2="1"><stop offset="0%" stop-color="#ffc94a"/><stop offset="100%" stop-color="#f59222"/></linearGradient></defs>
  <rect x="20" y="20" width="80" height="80" rx="14" fill="url(#g1)" opacity="0.15"/>
  <path d="M40 30 L80 30 Q88 30 88 38 L88 58 Q88 66 80 66 L62 66 L62 78 L72 78 Q76 78 76 82 L76 90 Q76 94 72 94 L48 94 Q44 94 44 90 L44 82 Q44 78 48 78 L58 78 L58 66 L40 66 Q32 66 32 58 L32 38 Q32 30 40 30 Z" fill="#f59222"/>
  <circle cx="42" cy="40" r="3" fill="#fff"/>
  <rect x="50" y="38" width="30" height="4" rx="2" fill="#fff"/>
  <rect x="50" y="46" width="22" height="3" rx="1.5" fill="#fff" opacity="0.7"/>
  <rect x="50" y="52" width="26" height="3" rx="1.5" fill="#fff" opacity="0.7"/>
</svg>
