<svg xmlns="http://www.w3.org/2000/svg" xmlns:xlink="http://www.w3.org/1999/xlink" width="79.844" height="74.1" viewBox="0 0 79.844 74.1">
  <defs>
    <linearGradient id="linear-gradient" y1="0.169" x2="0.846" y2="1" gradientUnits="objectBoundingBox">
      <stop offset="0" stop-color="#dbbdc4"/>
      <stop offset="1" stop-color="#9b82bc"/>
    </linearGradient>
  </defs>
  <path id="패스_5709" data-name="패스 5709" d="M151.31,13.543a21.2,21.2,0,0,0-38.589-2.117A21.2,21.2,0,0,0,88.224.752,20.686,20.686,0,0,0,74.838,11.874a22.385,22.385,0,0,0-1.89,12.214l-.006-.006s.07.717.263,2.018c.029.169.052.338.082.507.875,5.664,3.85,20.519,12.884,40.006a12.933,12.933,0,0,0,16.769,6.457l5.687-2.421a10.465,10.465,0,0,1,8.195,0l5.681,2.421a12.933,12.933,0,0,0,16.769-6.457c9.035-19.481,12.009-34.331,12.89-40,.029-.175.052-.35.082-.519.192-1.3.257-2.012.257-2.012l-.006.006a22.858,22.858,0,0,0-1.184-10.545" transform="translate(-72.8 0.001)" fill="url(#linear-gradient)"/>
</svg>
